<svg width="25" height="15" viewBox="0 0 25 15" fill="none" xmlns="http://www.w3.org/2000/svg">
<path d="M23.6949 4.5123C22.8706 5.37105 14.1898 13.7682 14.1898 13.7682C13.9827 13.9854 13.7348 14.1581 13.4607 14.276C13.1867 14.394 12.892 14.4548 12.5943 14.4548C12.2966 14.4548 12.002 14.394 11.7279 14.276C11.4538 14.1581 11.2059 13.9854 10.9989 13.7682C10.9989 13.7682 2.31711 5.37105 1.49181 4.5123C1.08023 4.06011 0.851654 3.46703 0.851654 2.85133C0.851654 2.23562 1.08023 1.64254 1.49181 1.19035C1.69401 0.964841 1.94036 0.784683 2.21509 0.661408C2.48981 0.538132 2.78687 0.474457 3.08723 0.474457C3.38759 0.474457 3.68465 0.538132 3.95938 0.661408C4.2341 0.784683 4.48045 0.964841 4.68265 1.19035L12.5938 8.89431L20.505 1.19233C20.7072 0.966824 20.9536 0.786666 21.2283 0.663391C21.503 0.540116 21.8001 0.47644 22.1004 0.47644C22.4008 0.47644 22.6979 0.540116 22.9726 0.663391C23.2473 0.786666 23.4937 0.966824 23.6959 1.19233C24.1082 1.64378 24.3373 2.2368 24.3371 2.85251C24.3369 3.46822 24.1075 4.0611 23.6949 4.5123Z" fill="white"/>
</svg>
