<svg width="25" height="19" viewBox="0 0 25 19" fill="none" xmlns="http://www.w3.org/2000/svg">
<path d="M16.7139 18.6551C16.5498 18.8334 16.3266 18.9343 16.0934 18.9356C15.8602 18.9368 15.6361 18.8384 15.4703 18.6619C15.3046 18.4854 15.2108 18.2453 15.2096 17.9944C15.2085 17.7435 15.3 17.5024 15.4641 17.3241L21.8018 10.5063L0.887708 10.5063C0.77205 10.5073 0.657338 10.4838 0.550126 10.4371C0.442916 10.3904 0.345306 10.3214 0.262874 10.2342C0.18044 10.1469 0.114799 10.043 0.0696995 9.92841C0.0246003 9.81384 0.000924328 9.69083 2.7864e-05 9.56641C0.000970074 9.31346 0.0947963 9.07116 0.261066 8.8923C0.427333 8.71344 0.65257 8.6125 0.887708 8.61149L21.8018 8.61149L15.4638 1.80456C15.3012 1.62445 15.2103 1.38331 15.2103 1.1323C15.2103 0.881291 15.3012 0.640155 15.4638 0.460044C15.5453 0.370721 15.6425 0.299769 15.7498 0.251334C15.8571 0.202901 15.9723 0.177955 16.0887 0.177955C16.205 0.177955 16.3202 0.202901 16.4275 0.251334C16.5348 0.299769 16.6321 0.370721 16.7136 0.460044L24.5522 8.89303C24.7145 9.07051 24.8055 9.30954 24.8055 9.55855C24.8055 9.80756 24.7145 10.0466 24.5522 10.2241L16.7139 18.6551Z" fill="#496582"/>
</svg>
